<svg width="1464" height="1179" viewBox="0 0 1464 1179" fill="none" xmlns="http://www.w3.org/2000/svg">
<g clip-path="url(#clip0_1640_10308)">
<path d="M1260.19 494.334C1207.98 537.139 1355.32 762.911 1267.24 881.82C1246.05 910.413 1210.9 932.174 1210.9 932.174" stroke="#31416D" stroke-width="5" stroke-miterlimit="10"/>
<path d="M1259.98 483.371C1268.05 496.326 1282.14 520.541 1271.82 524.304C1261.51 528.065 1230.64 525.413 1226.64 512.578C1228.39 506.827 1247.55 476.789 1259.98 483.371Z" fill="#A578E1"/>
<path d="M1255.46 482.478C1247.02 490.248 1238.12 506.761 1239.14 513.019C1242.32 523.263 1265.68 526.02 1275.35 519.209C1275.11 521.649 1274.08 523.482 1271.82 524.303C1261.51 528.065 1230.64 525.412 1226.64 512.58C1228.18 507.514 1243.21 483.656 1255.27 482.494C1255.33 482.487 1255.39 482.481 1255.46 482.478Z" fill="#865FB9"/>
<path d="M1299.49 295.073C1301.27 295.491 1302.82 294.383 1304.4 292.938C1384.76 220.185 1482.93 322.463 1409.43 405.579C1355.86 466.15 1272.41 490.884 1255.49 486.93C1238.54 482.974 1180.85 430.529 1158.06 352.944C1125.96 243.665 1257.05 189.57 1296.75 290.672C1297.5 292.597 1298.2 294.768 1299.49 295.073Z" fill="#A578E1"/>
<path d="M1402.39 336.539C1413.41 331.268 1417.46 354.05 1407.56 360.303C1397.65 366.548 1393.4 342.871 1402.39 336.539Z" fill="#865FB9"/>
<path d="M1400.42 323.634C1383.63 337.975 1346.44 297.049 1364.32 287.248C1382.19 277.441 1415.86 312.725 1400.42 323.634Z" fill="#865FB9"/>
<path d="M1204.89 391.742C1234.6 444.556 1295.88 469.556 1346 456.502C1305.38 479.983 1266.46 489.496 1255.49 486.93C1238.54 482.975 1180.85 430.529 1158.06 352.945C1141.32 295.953 1168.97 253.978 1204.89 241.199C1176.02 268.532 1178.31 344.504 1204.89 391.742" fill="#865FB9"/>
<path d="M1275.76 302.269C1275.76 302.269 1292.22 300.523 1297.34 292.192C1297.91 293.602 1298.54 294.854 1299.49 295.075C1301.27 295.493 1302.82 294.384 1304.4 292.94C1319.85 278.951 1335.97 271.451 1351.4 269.029C1313.85 290.669 1285.9 327.987 1275.76 302.269" fill="#865FB9"/>
<path d="M1233.91 366.549C1233.47 369.225 1233.36 371.796 1233.59 374.264C1234.24 381.132 1237.98 385.126 1244.83 386.246C1247.17 386.629 1249.87 386.491 1252.94 385.831C1256.01 385.145 1258.07 384.888 1259.13 385.061C1260.21 385.238 1260.99 385.722 1261.47 386.513C1261.94 387.305 1262.11 388.151 1261.96 389.051C1261.63 391.083 1259.22 392.776 1254.75 394.131C1251.11 395.225 1247.23 395.435 1243.12 394.762L1241.92 394.566C1238.09 393.938 1234.8 392.7 1232.07 390.853C1226.86 387.332 1223.94 382.496 1223.31 376.344C1222.92 372.45 1223.09 368.239 1223.83 363.711C1225.32 354.605 1228.43 347.981 1233.15 343.841C1235.28 341.971 1238.1 340.585 1241.63 339.684C1245.19 338.786 1248.53 338.595 1251.67 339.109L1252.83 339.298C1257.08 339.993 1260.31 341.13 1262.53 342.709C1264.76 344.289 1266.32 345.945 1267.23 347.678C1267.57 348.341 1267.64 349.303 1267.43 350.563C1267.22 351.824 1266.69 352.766 1265.82 353.39C1264.95 354.014 1263.96 354.235 1262.86 354.054C1261.78 353.877 1259.73 352.908 1256.72 351.147C1253.71 349.36 1251.17 348.298 1249.11 347.961C1247.06 347.624 1245.13 347.771 1243.34 348.402C1241.57 349.037 1240.14 349.992 1239.06 351.268C1236.88 353.815 1235.16 358.909 1233.91 366.549Z" fill="white"/>
<path d="M1270.87 394.155C1270.02 392.932 1269.69 391.677 1269.9 390.391C1270.11 389.105 1270.67 388.152 1271.56 387.532C1272.48 386.891 1273.2 386.613 1273.72 386.697C1274.26 386.785 1276.15 387.888 1279.4 390.004C1282.67 392.099 1285.78 393.386 1288.71 393.866C1294.78 394.86 1298.18 393.224 1298.91 388.958C1299.33 386.386 1298.61 384.209 1296.77 382.427C1295.46 381.184 1292.46 379.2 1287.75 376.475C1283.05 373.724 1279.77 371.034 1277.9 368.404C1276.06 365.752 1275.46 362.535 1276.07 358.754C1277.25 351.551 1281.5 347.386 1288.82 346.26C1291.47 345.849 1294.14 345.863 1296.82 346.301L1298.17 346.522C1301.59 347.083 1304.84 348.355 1307.92 350.339C1311.04 352.301 1312.43 354.247 1312.12 356.176C1311.94 357.282 1311.5 358.241 1310.82 359.053C1310.15 359.869 1309.33 360.197 1308.36 360.037C1308.1 359.995 1306.23 358.884 1302.76 356.704C1300.77 355.454 1298.02 354.541 1294.49 353.964C1292.38 353.618 1290.48 353.928 1288.79 354.893C1287.1 355.858 1286.13 357.125 1285.87 358.694C1285.47 361.163 1286.23 363.349 1288.17 365.25C1289.01 366.075 1291.71 367.824 1296.26 370.498C1300.85 373.151 1303.98 375.539 1305.67 377.664C1307.35 379.789 1308.39 381.755 1308.78 383.563C1309.18 385.344 1309.23 387.123 1308.94 388.898L1308.73 390.21C1307.98 394.763 1305.7 398.14 1301.88 400.34C1298.06 402.541 1293.51 403.21 1288.23 402.346C1282.96 401.483 1278.96 400.207 1276.22 398.517C1273.51 396.832 1271.73 395.378 1270.87 394.155Z" fill="white"/>
<path d="M1316.56 401.636C1315.71 400.412 1315.38 399.158 1315.59 397.871C1315.81 396.585 1316.36 395.632 1317.25 395.013C1318.18 394.372 1318.89 394.093 1319.41 394.177C1319.95 394.266 1321.84 395.368 1325.09 397.484C1328.36 399.579 1331.47 400.867 1334.4 401.347C1340.47 402.341 1343.87 400.705 1344.6 396.439C1345.02 393.866 1344.3 391.689 1342.46 389.908C1341.15 388.664 1338.15 386.68 1333.45 383.955C1328.74 381.205 1325.46 378.514 1323.59 375.884C1321.75 373.232 1321.15 370.016 1321.76 366.234C1322.94 359.031 1327.19 354.867 1334.51 353.74C1337.16 353.33 1339.83 353.344 1342.51 353.782L1343.86 354.003C1347.28 354.563 1350.53 355.835 1353.61 357.819C1356.73 359.781 1358.12 361.727 1357.81 363.657C1357.63 364.763 1357.19 365.722 1356.51 366.534C1355.84 367.35 1355.02 367.678 1354.05 367.518C1353.79 367.476 1351.92 366.365 1348.45 364.185C1346.46 362.935 1343.71 362.021 1340.18 361.444C1338.07 361.099 1336.17 361.408 1334.48 362.373C1332.79 363.338 1331.82 364.605 1331.56 366.174C1331.16 368.644 1331.92 370.829 1333.86 372.731C1334.7 373.555 1337.4 375.305 1341.95 377.979C1346.54 380.631 1349.67 383.02 1351.36 385.145C1353.04 387.27 1354.08 389.236 1354.47 391.043C1354.87 392.825 1354.92 394.603 1354.63 396.378L1354.42 397.69C1353.67 402.243 1351.39 405.62 1347.57 407.821C1343.75 410.022 1339.2 410.69 1333.92 409.827C1328.65 408.963 1324.65 407.687 1321.91 405.998C1319.2 404.313 1317.42 402.859 1316.56 401.636Z" fill="white"/>
<path d="M531.562 645.371C530.679 658.646 531.502 672.033 534 685.103C534.941 690.017 536.199 695.054 539.283 698.993C542.471 703.061 547.252 705.508 551.955 707.643C584.558 722.456 621.227 728.356 656.77 724.011C663.53 723.183 670.411 721.936 676.303 718.517C682.195 715.098 686.984 709.108 687.305 702.302C687.622 695.499 682.328 688.421 675.518 688.251C668.158 688.066 662.601 695.383 661.141 702.599C660.902 703.779 660.72 705.02 660.045 706.021C658.262 708.667 643.665 712.954 641.989 705.539C641.507 703.41 644.026 693.257 639.917 691.999C602.337 680.51 565.85 665.46 531.562 645.371Z" fill="#DDF1E2"/>
<path d="M343.228 1045.86C338.669 1073.6 337.449 1101.89 339.604 1129.93C339.919 1134.02 340.178 1138.57 337.613 1141.78C336.156 1143.61 327.472 1148.02 310.053 1150.34C301.054 1151.54 279.81 1154.25 277.897 1147.12C276.469 1141.78 284.606 1135.22 289.032 1128.59C271.437 1095.05 259.397 1058.61 253.549 1021.19C261.065 1021.23 268.428 1023.15 275.699 1025.05C298.106 1030.92 320.512 1036.79 343.228 1045.86Z" fill="#192341"/>
<path d="M399.213 1039.34C407.017 1066.36 411.567 1094.31 412.739 1122.4C412.909 1126.5 413.189 1131.05 416.115 1133.94C417.777 1135.58 426.923 1138.93 444.494 1139.18C453.571 1139.31 474.988 1139.49 476.044 1132.18C476.832 1126.72 467.977 1121.16 462.801 1115.1C476.309 1079.72 483.961 1042.11 485.352 1004.26C477.893 1005.19 470.807 1007.96 463.813 1010.71C442.255 1019.19 420.699 1027.66 399.213 1039.34Z" fill="#192341"/>
<path d="M294.895 454.616C231.376 477.075 188.063 529.335 156.308 623.717C129.521 703.335 95.9026 746.646 91.8604 830.552C83.6288 1001.42 210.262 1048.97 234.466 1058.46C256.668 1067.16 280.639 1070.53 304.459 1071.56C354.039 1073.72 404.678 1065.75 449.027 1043.49C493.379 1021.23 578.586 950.237 590.9 881.721C563.15 882.872 493.919 928.078 471.195 912.111C448.468 896.145 429.763 875.169 412.14 853.7C365.768 797.213 324.919 735.041 301.491 665.816C278.062 596.59 273.042 519.569 294.895 454.616Z" fill="#69C480"/>
<path d="M322.48 446.113C277.011 451.122 239.633 486.039 217.232 525.924C194.828 565.807 184.265 611.027 169.715 654.396C156.674 693.268 140.28 731.025 129.068 770.463C117.858 809.904 111.952 851.833 120.444 891.946C131.589 944.61 167.75 990.543 214.28 1017.61C260.811 1044.68 316.828 1053.54 370.213 1046.63C462.042 1034.75 546.363 975.162 588.652 890.339C599.919 861.53 633.67 797.561 556.649 674.422C543.902 654.044 521.106 627.012 500.895 594.7C485.585 570.222 461.254 519.395 442.549 498.255C411.276 462.914 363.736 441.569 322.48 446.113Z" fill="#DDF1E2"/>
<path d="M351.769 649.809C293.302 658.386 235.791 743.761 251.458 838.371C257.99 877.815 300.331 917.383 338.534 926.771C351.1 929.859 364.331 930.519 376.98 927.804C397.89 923.318 416.168 909.824 430.014 893.225C448.494 871.075 459.867 843.31 465.044 814.712C470.272 785.848 467.914 755.596 456.985 728.466C446.087 701.423 413.349 644.335 351.769 649.809Z" fill="#69C480"/>
<path d="M279.623 584.685C279.623 580.424 282.869 576.97 286.871 576.97C290.875 576.97 294.118 580.424 294.118 584.685C294.118 588.947 290.875 592.4 286.871 592.4C282.869 592.4 279.623 588.947 279.623 584.685Z" fill="#31416D"/>
<path d="M376.055 566.424C376.055 562.162 379.301 558.708 383.302 558.708C387.307 558.708 390.55 562.162 390.55 566.424C390.55 570.685 387.307 574.139 383.302 574.139C379.301 574.139 376.055 570.685 376.055 566.424Z" fill="#31416D"/>
<path d="M861.749 1004.26C856.077 1042.56 852.176 1105.38 850.777 1109.35C849.773 1112.2 837.865 1120.71 839.054 1125.1C841.61 1134.52 890.628 1135.56 897.849 1129.85C907.117 1122.52 925.998 1049.09 931.982 1020.3C932.435 1018.12 931.999 1015.18 930.522 1013.51C929.394 1012.24 927.567 1011.91 925.885 1011.66C902.304 1008.17 884.168 1005.44 861.749 1004.26Z" fill="#192341"/>
<path d="M1097.44 1007.37C1103.11 1045.67 1107.01 1108.48 1108.41 1112.45C1109.41 1115.31 1121.32 1123.81 1120.13 1128.2C1117.57 1137.62 1068.56 1138.67 1061.33 1132.96C1052.07 1125.63 1033.19 1052.2 1027.2 1023.41C1026.75 1021.22 1027.19 1018.29 1028.66 1016.62C1029.79 1015.35 1031.62 1015.02 1033.3 1014.77C1056.88 1011.27 1075.02 1008.55 1097.44 1007.37Z" fill="#192341"/>
<path d="M970.265 404.894C1025.37 394.836 1083.85 435.313 1115.9 470.132C1151.39 508.702 1176.72 549.955 1198.99 597.403C1243.04 691.234 1265.46 800.582 1232.9 898.994C1222.41 930.709 1206.21 960.854 1183.26 985.119C1143.72 1026.91 1085.95 1048.72 1028.49 1051.46C971.026 1054.2 919.17 1045.45 865.773 1024.04C831.127 1010.15 784.412 980.237 776.789 965.268C768.367 948.736 796.518 923.403 804.005 906.427C811.493 889.45 822.656 874.412 832.996 859.005C921.888 726.564 950.789 566.084 970.265 404.894Z" fill="#69C480"/>
<path d="M324.594 577.184C326.75 579.498 329.56 581.665 332.321 583.001C335.137 584.337 337.999 584.914 340.824 584.348C342.281 584.158 343.617 583.667 344.834 582.975C346.078 582.308 347.166 581.356 348.187 580.245C350.195 577.977 351.672 574.936 352.803 571.691L352.826 571.63C353.101 570.848 353.955 570.435 354.739 570.707C355.342 570.917 355.726 571.477 355.743 572.08C355.853 575.972 354.907 579.994 352.564 583.537C351.416 585.315 349.826 586.878 347.985 588.105C346.141 589.334 344.001 590.101 341.889 590.468C339.762 590.823 337.474 590.825 335.359 590.315C333.25 589.781 331.262 588.941 329.551 587.773C327.817 586.642 326.328 585.251 325.042 583.736C323.789 582.158 322.684 580.6 321.96 578.543C321.686 577.767 322.096 576.916 322.869 576.644C323.446 576.443 324.061 576.613 324.453 577.031L324.594 577.184Z" fill="#31416D"/>
<path d="M391 600.141C391 584.047 404.396 571 420.917 571C437.441 571 450.837 584.047 450.837 600.141C450.837 616.235 437.441 629.282 420.917 629.282C404.396 629.282 391 616.235 391 600.141Z" fill="#94D3A2"/>
<path d="M1205.51 679.159C1224.56 682.209 1254.66 704.667 1282.17 736.844C1296.18 753.241 1315.7 787.289 1314.89 798.862C1314.57 803.418 1312.91 806.517 1308.37 805.804C1307.82 808.654 1305.53 811.101 1302.71 811.86C1299.89 812.622 1296.67 811.655 1294.74 809.471C1294.12 812.625 1289.75 813.839 1286.91 812.307C1284.06 810.781 1282.6 807.549 1281.85 804.422C1278.6 804.935 1275.45 802.347 1274.42 799.237C1273.39 796.13 1274.05 792.705 1275.18 789.632C1275.6 788.498 1276.09 787.281 1275.74 786.124C1275.5 785.322 1274.89 784.684 1274.3 784.09C1223.93 733.722 1206.21 741.397 1203.72 738.448C1201.63 735.964 1200.18 681.938 1205.51 679.159Z" fill="#DDF1E2"/>
<path d="M227 630.141C227 614.047 240.396 601 256.92 601C273.441 601 286.837 614.047 286.837 630.141C286.837 646.235 273.441 659.282 256.92 659.282C240.396 659.282 227 646.235 227 630.141Z" fill="#94D3A2"/>
<path d="M137.069 747.191C120.787 751.401 87.2059 777.89 61.1839 810.063C47.9262 826.46 27.2506 864.395 28.0209 875.968C28.321 880.524 29.8934 883.623 34.1838 882.907C34.7089 885.761 36.8757 888.207 39.5475 888.969C42.2163 889.725 45.2602 888.761 47.0866 886.58C47.6752 889.731 51.8069 890.942 54.4959 889.416C57.1878 887.89 58.5727 884.656 59.2767 881.528C62.3524 882.042 65.3329 879.456 66.3081 876.346C67.2804 873.236 66.6572 869.814 65.5868 866.738C65.1915 865.604 64.7327 864.387 65.0588 863.233C65.2867 862.425 65.8609 861.793 66.4235 861.199C114.076 810.831 127.169 813.064 129.524 810.115C131.503 807.631 142.112 749.967 137.069 747.191Z" fill="#DDF1E2"/>
<path d="M662.244 699.227C661.814 703.275 661.335 707.473 659.226 710.955C657.114 714.438 653.012 716.371 648.975 715.831C643.695 715.124 639.056 712.257 638.727 708.191C638.3 702.882 640.218 695.092 643.903 691.243C647.587 687.397 656.866 685.611 662.189 685.81C664.535 685.897 666.843 686.422 669.178 686.664C672.874 687.057 676.601 686.754 680.306 686.451C694.542 685.288 712.266 684.674 735.705 673.398C771.471 656.193 795.548 633.287 810.779 620.665C810.592 634.424 792.112 672.232 786.656 684.861C785.58 687.351 784.385 689.827 782.64 691.898C779.803 695.262 775.727 697.299 771.705 699.091C744.006 711.431 713.059 716.38 682.897 713.292C685.401 709.386 688.229 703.503 686.322 698.497C684.415 693.488 679.111 689.913 673.762 690.259C668.413 690.6 662.715 694.821 662.244 699.227Z" fill="#DDF1E2"/>
<path d="M944.135 409.69C886.831 427.374 852.909 478.237 828.015 544.208C817.161 572.971 808.831 625.347 796.269 658.64C780.703 699.89 750.463 734.28 734.525 775.386C708.765 841.81 726.781 923.909 780.559 970.636C799.319 986.934 821.532 998.819 844.453 1008.41C901.944 1032.49 965.982 1042.77 1027.39 1032.12C1088.8 1021.47 1147.17 988.899 1184.12 938.702C1226.68 880.864 1237.97 804.203 1226.92 733.249C1215.86 662.293 1184.35 596.097 1147.84 534.266C1126.12 497.508 1101.81 461.114 1067.69 435.461C1033.57 409.808 993.925 394.326 944.135 409.69Z" fill="#DDF1E2"/>
<path d="M910.014 529.911C910.014 524.654 914.278 520.392 919.535 520.392C924.789 520.392 929.053 524.654 929.053 529.911C929.053 535.168 924.789 539.429 919.535 539.429C914.278 539.429 910.014 535.168 910.014 529.911Z" fill="#31416D"/>
<path d="M1001.32 523.694C1001.32 518.437 1005.58 514.176 1010.84 514.176C1016.1 514.176 1020.36 518.437 1020.36 523.694C1020.36 528.951 1016.1 533.212 1010.84 533.212C1005.58 533.212 1001.32 528.951 1001.32 523.694Z" fill="#31416D"/>
<path d="M953.461 534.124C954.93 536.686 956.621 538.963 958.626 540.544C960.64 542.122 962.798 542.927 965.057 542.832C967.336 542.748 969.653 541.851 971.425 540.244C973.228 538.602 974.587 536.253 975.303 533.512L975.323 533.432C975.533 532.627 976.359 532.142 977.164 532.353C977.752 532.506 978.168 532.99 978.269 533.553C978.886 537.061 977.882 540.922 975.482 543.922C973.064 546.969 969.261 548.897 965.291 549.041C963.303 549.133 961.246 548.726 959.437 547.916C957.613 547.111 956.047 545.91 954.806 544.525C952.278 541.776 950.908 538.351 950.614 534.938C950.539 534.107 951.153 533.377 951.984 533.305C952.587 533.253 953.141 533.564 953.424 534.058L953.461 534.124Z" fill="#31416D"/>
<path d="M456.984 728.466C446.087 701.422 413.348 644.335 351.768 649.808C345.224 650.769 338.695 652.696 332.275 655.486C359.163 666.133 401.567 704.717 412.768 780.579C421.539 839.992 404.132 890.734 368.326 929.117C371.229 928.834 374.12 928.418 376.979 927.804C397.889 923.317 416.167 909.823 430.013 893.224C448.496 871.077 459.867 843.313 465.043 814.714C470.271 785.85 467.916 755.595 456.984 728.466Z" fill="#0A9E46"/>
<g opacity="0.560791">
<g opacity="0.560791">
<path opacity="0.560791" d="M986.598 632.447C1014.11 642.332 1044.99 677.107 1048.78 750.044C1051.86 809.208 1021.45 875.124 970.931 884.542C927.271 892.678 874.659 869.21 857.111 826.425C846.438 800.408 840.247 756.356 877.426 697.379C902 658.397 950.073 630.035 986.598 632.447Z" fill="#997FB5"/>
</g>
</g>
<path d="M987.917 629.491C950.562 630.901 915.503 651.231 891.033 679.489C870.248 703.491 856.038 734.41 857.175 766.141C858.329 798.364 875.335 828.751 899.222 850.411C910.711 860.835 957.498 892.235 992.663 871.257C1014.87 858.008 1056.33 809.916 1051.5 731.178C1047.48 665.432 1000.12 629.646 987.917 629.491Z" fill="#F4BF4A"/>
<g opacity="0.568634">
<g opacity="0.568634">
<path opacity="0.568634" d="M1051.51 731.178C1047.48 665.432 1000.13 629.646 987.918 629.491C987.283 629.514 986.651 629.557 986.019 629.592C1024.25 676.064 1010.61 758.672 997.52 781.15C958.806 847.644 897.777 849.101 899.222 850.411C910.712 860.835 957.499 892.235 992.661 871.257C1014.87 858.008 1056.33 809.916 1051.51 731.178Z" fill="#986E10"/>
</g>
</g>
<path d="M1174.12 856.371C1173.94 855.482 1173.2 854.787 1172.4 854.449C1171.53 854.083 1170.59 854.126 1169.76 854.599C1169.71 854.628 1169.67 854.666 1169.63 854.694C1169.19 854.671 1168.74 854.749 1168.36 854.992L1167.9 855.349C1167.61 855.638 1167.42 855.975 1167.31 856.365C1167.15 856.757 1166.98 857.15 1166.82 857.542C1166.57 857.917 1166.33 858.301 1166.14 858.716C1165.99 859.066 1165.84 859.412 1165.7 859.764C1165.48 860.347 1165.5 861.004 1165.64 861.607C1165.67 861.732 1165.74 861.853 1165.78 861.977C1165.79 862.981 1165.99 863.97 1166.48 864.911C1167.03 865.961 1168.75 866.518 1169.75 865.768C1171.11 864.755 1172.31 863.506 1173.02 861.942C1173.35 861.198 1173.65 860.416 1173.85 859.622C1173.93 859.319 1174.01 859.017 1174.07 858.711C1174.09 858.564 1174.12 858.416 1174.15 858.269C1174.29 857.568 1174.26 857.063 1174.12 856.371Z" fill="#69C480"/>
<path d="M1143.69 888.346C1142.86 887.067 1141.43 886.21 1139.86 886.314C1137.15 886.493 1135.26 888.816 1134.02 891.023C1133.37 892.18 1132.8 893.412 1132.33 894.653C1131.95 895.648 1131.66 896.713 1131.64 897.786C1131.61 899.61 1133.06 901.147 1134.82 901.384C1135.6 901.488 1136.47 901.39 1137.15 900.948C1137.49 900.732 1137.75 900.481 1137.99 900.207C1138.28 900.005 1138.56 899.794 1138.83 899.581C1139.56 898.992 1140.26 898.383 1140.89 897.685C1141.68 896.822 1142.43 895.882 1143.02 894.878C1143.54 894.006 1144.07 893.08 1144.26 892.07C1144.49 890.824 1144.41 889.436 1143.69 888.346Z" fill="#69C480"/>
<path d="M1173.58 885.421C1173.54 884.679 1173.34 884.004 1172.99 883.361C1172.61 882.66 1171.75 881.987 1170.97 881.806C1170.05 881.598 1169.21 881.719 1168.36 882.146C1167.47 882.599 1166.67 883.266 1165.92 883.912C1165.05 884.651 1164.34 885.637 1163.67 886.546C1162.27 888.453 1161.13 890.963 1161.79 893.364C1162.2 894.841 1163.3 896.039 1164.82 896.402C1165.78 896.633 1166.8 896.526 1167.65 896.044C1168.17 895.897 1168.7 895.672 1169.16 895.372C1170.19 894.685 1170.97 893.831 1171.69 892.83C1172.29 891.996 1172.71 891.01 1173.03 890.04C1173.34 889.082 1173.54 888.058 1173.58 887.045C1173.59 886.676 1173.61 886.298 1173.59 885.926C1173.58 885.756 1173.59 885.591 1173.58 885.421Z" fill="#69C480"/>
<path d="M1199.19 838.44C1198.96 838.013 1198.64 837.667 1198.24 837.41C1197.88 837.084 1197.47 836.865 1196.99 836.749C1196.34 836.576 1195.68 836.576 1195.03 836.749C1194.58 836.9 1194.12 837.07 1193.72 837.318C1193.42 837.503 1192.97 837.849 1192.84 837.984C1192.28 838.524 1192.01 839.043 1191.78 839.773C1191.76 839.845 1191.74 839.923 1191.72 839.995C1191.66 840.258 1191.64 840.515 1191.63 840.774C1191.43 841.196 1191.24 841.628 1191.08 842.073C1190.98 842.37 1190.9 842.676 1190.85 842.987C1190.8 843.383 1190.71 843.856 1190.71 844.28C1190.7 844.739 1190.8 845.2 1190.86 845.648C1191.03 846.239 1191.32 846.753 1191.76 847.185C1192.19 847.618 1192.71 847.915 1193.3 848.083C1193.92 848.247 1194.53 848.247 1195.15 848.083C1195.74 847.915 1196.26 847.618 1196.69 847.185C1197.07 846.891 1197.4 846.556 1197.7 846.184C1198.01 845.795 1198.33 845.405 1198.59 844.978C1198.84 844.554 1199.02 844.072 1199.2 843.622C1199.36 843.244 1199.46 842.846 1199.52 842.442C1199.62 841.727 1199.71 841.02 1199.69 840.298C1199.69 839.632 1199.52 839.014 1199.19 838.44Z" fill="#69C480"/>
<path d="M1127.79 935.052C1127.67 934.562 1127.45 934.138 1127.11 933.774C1126.94 933.491 1126.72 933.266 1126.44 933.096C1126.2 932.865 1125.92 932.704 1125.61 932.614C1125.31 932.444 1125 932.358 1124.66 932.355C1124.16 932.245 1123.66 932.268 1123.16 932.424C1122.23 932.811 1121.33 933.209 1120.49 933.742C1119.98 933.812 1119.5 933.947 1119.05 934.207C1118.43 934.686 1117.79 935.13 1117.29 935.736C1116.84 936.284 1116.35 936.87 1116.04 937.516C1115.73 938.154 1115.42 938.838 1115.29 939.545C1115.19 940.076 1115.09 940.618 1115.12 941.16C1115.14 941.7 1115.23 942.237 1115.32 942.768C1115.44 943.267 1115.67 943.699 1116.01 944.069C1116.28 944.484 1116.63 944.813 1117.08 945.053C1117.97 945.523 1119.04 945.757 1120.03 945.439C1121.76 944.88 1123.34 943.76 1124.47 942.335C1125.06 941.59 1125.62 940.84 1126.1 940.018C1126.35 939.582 1126.58 939.138 1126.81 938.696C1127.02 938.477 1127.23 938.243 1127.4 937.952C1127.53 937.652 1127.66 937.352 1127.79 937.052C1127.83 936.72 1127.88 936.385 1127.92 936.054C1127.88 935.719 1127.83 935.384 1127.79 935.052Z" fill="#69C480"/>
<path d="M1114.27 908.037C1114.27 908.031 1114.27 908.025 1114.26 908.017C1114.26 908.011 1114.26 908.005 1114.26 907.999C1114.24 907.944 1113.88 907.085 1113.85 907.033C1113.85 907.021 1113.84 907.015 1113.83 907.004C1113.73 906.805 1113.57 906.606 1113.41 906.418C1113.25 906.023 1113.02 905.665 1112.7 905.362C1112.44 905.16 1112.18 904.961 1111.92 904.756C1111.32 904.407 1110.67 904.234 1109.97 904.231C1109.63 904.277 1109.28 904.323 1108.94 904.37C1108.29 904.551 1107.72 904.883 1107.24 905.362C1107.12 905.469 1107 905.57 1106.88 905.668C1106.6 905.876 1106.32 906.081 1106.05 906.294C1105.61 906.646 1105.24 907.113 1104.95 907.589C1104.73 907.959 1104.55 908.369 1104.46 908.79C1104.26 909.644 1104.28 909.892 1104.38 910.642C1104.41 910.858 1104.42 911.118 1104.49 911.34C1104.62 911.707 1104.79 912.085 1104.96 912.44C1105.04 912.618 1105.15 912.783 1105.27 912.939C1105.61 913.522 1106.07 913.986 1106.65 914.329C1107.09 914.609 1107.57 914.762 1108.09 914.785C1108.6 914.901 1109.12 914.878 1109.63 914.716C1110.28 914.534 1110.85 914.202 1111.33 913.724C1111.75 913.297 1112.19 912.895 1112.61 912.463C1112.84 912.304 1113.06 912.131 1113.21 911.978C1113.21 911.972 1113.22 911.969 1113.23 911.961C1113.3 911.886 1113.81 911.231 1113.86 911.138C1114.16 910.677 1114.32 910.178 1114.34 909.644C1114.46 909.107 1114.44 908.573 1114.27 908.037Z" fill="#69C480"/>
<path d="M832.549 609.624C832.547 609.165 832.408 608.646 832.177 608.251C831.88 607.74 831.416 607.368 830.879 607.14C830.414 606.944 829.964 606.886 829.468 606.952C829.223 606.955 828.995 607.016 828.781 607.14C828.444 607.25 828.155 607.437 827.907 607.7C827.425 608.08 827.065 608.591 826.713 609.085C826.459 609.445 826.237 609.82 826.032 610.21C825.737 610.772 825.492 611.364 825.247 611.952C825.175 612.123 825.106 612.296 825.039 612.469C825.013 612.544 824.987 612.616 824.961 612.688C824.95 612.723 824.935 612.755 824.927 612.789C824.774 613.323 824.86 613.834 824.932 614.373C825.068 614.864 825.319 615.291 825.677 615.651C825.991 615.96 826.358 616.174 826.767 616.315C826.969 616.5 827.2 616.655 827.454 616.765C827.852 616.929 828.242 616.981 828.669 616.921C829.214 616.852 829.598 616.632 830.016 616.277C830.893 615.545 831.456 614.52 831.834 613.459C832.099 612.711 832.212 611.95 832.296 611.171C832.353 611.038 832.408 610.902 832.443 610.77C832.544 610.397 832.549 610.008 832.549 609.624Z" fill="#69C480"/>
<path d="M826.632 631.553C826.65 631.132 826.563 630.742 826.37 630.379C826.246 630.001 826.038 629.675 825.738 629.398C825.158 628.861 824.396 628.469 823.58 628.503L822.772 628.61C822.253 628.757 821.805 629.02 821.425 629.398C821.223 629.637 821.006 629.871 820.848 630.142C820.738 630.333 820.66 630.537 820.579 630.748C820.395 630.921 820.227 631.115 820.115 631.342C819.921 631.738 819.65 632.093 819.457 632.488C819.269 632.869 819.07 633.278 818.992 633.703C818.871 634.346 818.805 634.799 818.969 635.439C818.998 635.566 819.05 635.682 819.088 635.806C819.183 636.028 819.275 636.25 819.367 636.472C819.515 636.66 819.659 636.847 819.806 637.035C819.991 637.179 820.181 637.326 820.369 637.471C820.686 637.676 821.035 637.785 821.404 637.802C821.65 637.866 821.898 637.866 822.143 637.802C822.397 637.8 822.631 637.739 822.847 637.612C823.086 637.546 823.288 637.425 823.462 637.254C823.767 637.055 824.007 636.796 824.18 636.472C824.48 635.967 824.792 635.474 825.08 634.969C825.092 634.949 825.1 634.929 825.112 634.909C825.222 634.767 825.328 634.626 825.438 634.487L825.649 634.207C825.781 634.026 825.891 633.83 825.998 633.636C826.05 633.541 826.099 633.446 826.148 633.351C826.217 633.212 826.28 633.071 826.332 632.926C826.402 632.785 826.459 632.641 826.508 632.494C826.531 632.413 826.54 632.323 826.555 632.237C826.609 632.018 826.641 631.793 826.632 631.553Z" fill="#69C480"/>
<path d="M842.513 620.747C842.516 620.733 842.518 620.721 842.518 620.707C842.726 620.13 842.784 619.504 842.611 618.881C842.464 618.358 842.201 617.905 841.82 617.522C841.434 617.138 840.981 616.873 840.458 616.725C838.88 616.12 837.305 616.945 836.191 618.03C835.931 618.283 835.706 618.566 835.484 618.858C834.976 619.212 834.57 619.726 834.365 620.39C834.249 620.762 834.148 621.14 834.05 621.518C833.926 621.873 833.808 622.233 833.727 622.597C833.6 623.157 833.508 623.745 833.531 624.322C833.534 624.371 833.551 624.415 833.557 624.461C833.525 624.87 833.505 625.277 833.511 625.684C833.528 627.158 834.809 628.656 836.376 628.552C837.645 628.468 838.701 627.989 839.622 627.115C840.248 626.521 840.77 625.756 841.154 624.983C841.826 623.65 842.253 622.242 842.507 620.785C842.536 620.707 842.565 620.632 842.593 620.56C842.568 620.62 842.542 620.687 842.513 620.747Z" fill="#69C480"/>
<path d="M829.752 653.333V653.328C829.865 653.027 829.946 652.722 829.931 652.364C829.897 652.098 829.859 651.83 829.822 651.565C829.822 651.562 829.819 651.559 829.819 651.556C829.813 651.519 829.81 651.481 829.807 651.443C829.715 651.074 829.548 650.748 829.294 650.474C829.167 650.261 828.996 650.087 828.783 649.96C828.506 649.709 828.183 649.542 827.811 649.45C827.77 649.444 827.73 649.438 827.687 649.432C827.594 649.401 827.508 649.355 827.41 649.329C827.159 649.297 826.905 649.262 826.654 649.228C826.14 649.231 825.661 649.36 825.22 649.617C825.026 649.767 824.836 649.911 824.643 650.061C824.291 650.416 824.048 650.835 823.916 651.317C823.907 651.366 823.887 651.415 823.872 651.467C823.78 651.669 823.696 651.876 823.618 652.081C823.587 652.159 823.564 652.234 823.552 652.312C823.512 652.595 823.474 652.877 823.439 653.154V653.18C823.439 653.198 823.439 653.218 823.439 653.235C823.46 653.449 823.494 653.665 823.529 653.879C823.535 653.931 823.54 653.983 823.549 654.032C823.555 654.075 823.561 654.118 823.564 654.159C823.575 654.234 823.587 654.309 823.604 654.381L823.621 654.441L823.933 655.186L823.982 655.246C824.08 655.425 824.207 655.578 824.348 655.719C824.371 655.751 824.397 655.783 824.42 655.815C824.501 655.895 824.977 656.262 825.072 656.311C825.081 656.317 825.09 656.32 825.098 656.325C825.142 656.348 825.185 656.371 825.228 656.395L825.903 656.677C826.279 656.796 826.656 656.813 827.032 656.729C827.288 656.729 827.528 656.663 827.747 656.536C828.096 656.421 828.399 656.227 828.656 655.95C829.135 655.578 829.461 655.021 829.623 654.441C829.726 654.06 829.718 653.755 829.744 653.417C829.767 653.345 829.778 653.27 829.81 653.198C829.79 653.244 829.77 653.287 829.752 653.333Z" fill="#69C480"/>
<path d="M189.57 962.671C187.291 959.304 184.308 956.05 180.684 954.108C178.892 953.147 176.841 952.279 174.755 952.486C172.943 952.665 171.523 953.848 171.465 955.776C171.33 960.277 174.319 964.532 177.27 967.651C177.943 968.361 178.664 969.056 179.414 969.717C182.008 972.328 185.441 974.795 189.054 975.378C190.476 975.606 192.355 975.026 192.634 973.344C193.263 969.555 191.665 965.764 189.57 962.671Z" fill="#69C480"/>
<path d="M226.183 983.978C225.418 982.489 224.195 981.358 222.871 980.38C220.453 978.594 217.363 977.688 214.399 977.411C213.618 977.333 212.527 977.833 212.005 978.401C211.407 979.053 210.986 979.887 211.015 980.793C211.125 984.639 214.099 987.764 217.227 989.63C218.623 990.461 220.176 991.168 221.794 991.408C222.64 991.535 223.465 991.512 224.229 991.145C224.304 991.154 224.38 991.177 224.455 991.185C225.479 991.289 226.844 990.3 226.996 989.249C227.273 987.38 227.054 985.675 226.183 983.978Z" fill="#69C480"/>
<path d="M212.272 960.205C211.709 959.4 211.095 958.613 210.342 957.981C209.387 957.173 208.501 956.625 207.344 956.172C207.03 956.05 206.698 955.938 206.369 955.877C205.391 955.687 204.762 955.719 203.813 955.849C203.593 955.886 203.374 955.929 203.163 956.01C202.321 956.327 201.496 956.795 201.051 957.632C200.616 958.457 200.411 959.435 200.697 960.352C201.06 961.515 201.695 962.392 202.448 963.327C202.829 963.797 203.259 964.219 203.735 964.594C204.156 964.923 204.589 965.309 205.071 965.554C205.575 965.814 206.103 966.031 206.629 966.235C206.96 966.365 207.301 966.432 207.644 966.463C208.311 966.908 208.997 967.323 209.722 967.713C210.636 968.2 211.707 968.244 212.618 967.713C213.475 967.211 214.058 966.241 214.038 965.234C214 963.448 213.288 961.659 212.272 960.205Z" fill="#69C480"/>
<path d="M203.707 955.863C203.747 955.858 203.776 955.855 203.813 955.849H203.825C203.784 955.852 203.747 955.858 203.707 955.863Z" fill="#69C480"/>
<path d="M203.824 955.85C204.093 955.812 204.358 955.777 204.623 955.74C204.358 955.777 204.09 955.803 203.824 955.85Z" fill="#69C480"/>
<path d="M172.693 874.203C172.503 873.032 172.223 871.869 171.825 870.752C171.568 870.025 171.268 869.307 170.933 868.614C170.815 868.372 170.691 868.133 170.558 867.902C170.547 867.882 170.524 867.827 170.498 867.778C170.492 867.752 170.483 867.723 170.477 867.697C170.16 866.502 169.093 865.628 167.892 865.47C166.747 865.317 165.33 865.845 164.794 866.953C164.015 868.574 163.922 870.383 164.072 872.166C164.029 872.351 164 872.55 163.997 872.752C163.928 876.667 164.998 882.161 169.046 883.889C169.82 884.221 170.486 884.356 171.288 884.016C171.932 883.745 172.639 883.133 172.745 882.386C173.132 879.61 173.141 876.976 172.693 874.203Z" fill="#69C480"/>
<path d="M271.511 1009.13C269.56 1007.16 267.157 1005.68 264.549 1004.75C261.837 1003.78 258.484 1003.66 255.861 1004.94C253.836 1005.92 253.288 1009.37 255.1 1010.83C256.464 1011.93 257.866 1012.86 259.476 1013.56C261.291 1014.35 263.504 1015.23 265.55 1014.95C266.69 1015.16 267.847 1015.26 269.001 1015.19C270.437 1015.11 271.675 1014.36 272.244 1013.01C272.798 1011.7 272.524 1010.15 271.511 1009.13Z" fill="#69C480"/>
<path d="M193.245 919.784C192.968 918.91 192.567 918.125 192.031 917.389C191.687 916.916 191.321 916.417 190.882 916.016C190.574 915.736 190.239 915.485 189.898 915.24C189.884 915.228 189.875 915.217 189.861 915.205C189.376 914.723 188.805 914.392 188.147 914.207C187.46 914.022 186.774 914.022 186.087 914.207C185.432 914.392 184.861 914.723 184.376 915.205C183.894 915.687 183.562 916.258 183.381 916.916C183.063 917.802 183.239 918.688 183.386 919.582C183.427 919.833 183.476 920.081 183.542 920.324C183.738 921.054 184.047 921.766 184.376 922.439C184.699 923.094 185.158 923.679 185.663 924.201C185.943 924.496 186.277 924.753 186.632 924.986C186.99 925.367 187.362 925.731 187.758 926.074C188.323 926.567 189.047 926.966 189.829 926.934C190.559 926.899 191.425 926.668 191.904 926.074C192.599 925.214 193.196 924.291 193.392 923.177C193.592 922.038 193.6 920.904 193.245 919.784Z" fill="#69C480"/>
<path d="M510.355 636.746C510.113 635.88 509.755 635.038 509.365 634.233C508.705 632.853 507.77 631.552 506.679 630.485C506.645 630.438 506.61 630.395 506.573 630.349C506.558 630.317 506.547 630.286 506.529 630.254C506.526 630.262 506.523 630.271 506.521 630.28C506.431 630.138 506.347 629.994 506.232 629.87C505.747 629.241 505.055 628.69 504.259 628.511C503.592 628.358 502.908 628.358 502.242 628.511C501.422 628.696 500.335 629.472 499.974 630.254C499.668 630.915 499.348 631.665 499.429 632.418C499.475 632.874 499.538 633.329 499.61 633.785C499.657 634.088 499.72 634.391 499.798 634.688C500.035 635.594 500.407 636.474 500.819 637.311C501.215 638.107 501.803 638.843 502.386 639.498C502.877 640.052 503.442 640.364 504.103 640.644C504.256 640.71 504.409 640.765 504.562 640.817C505.04 641.221 505.551 641.584 506.108 641.878C507.101 642.404 508.255 642.456 509.241 641.878C510.107 641.374 510.895 640.251 510.779 639.198C510.69 638.379 510.577 637.539 510.355 636.746Z" fill="#69C480"/>
<path d="M525.616 662.031C525.331 660.638 524.739 659.273 523.957 658.087C523.276 657.052 522.463 656.111 521.649 655.182C521.484 654.902 521.294 654.639 521.083 654.38C521.003 654.282 520.925 654.186 520.844 654.091C520.088 653.191 518.637 652.923 517.552 653.22C516.47 653.52 515.428 654.449 515.189 655.583C515.097 656.024 515.01 656.474 515.039 656.925C515.071 657.38 515.14 657.836 515.215 658.281C515.313 658.863 515.506 659.507 515.803 660.006C516.32 660.869 517.067 661.763 517.979 662.3C518.928 663.489 520.085 664.573 521.479 665.211C521.932 665.419 522.393 665.595 522.901 665.595C523.527 665.595 524.116 665.37 524.606 664.989C525.538 664.27 525.847 663.168 525.616 662.031Z" fill="#69C480"/>
<path d="M505.508 657.484C505.427 656.829 505.35 656.18 505.148 655.551C504.946 654.933 504.686 654.322 504.377 653.753C504.152 653.338 503.869 652.963 503.581 652.593C503.336 652.247 503.079 651.907 502.816 651.569C503.004 651.814 503.194 652.057 503.382 652.302C503.37 652.285 503.356 652.267 503.344 652.25C503.018 651.702 502.583 651.269 502.037 650.943C501.746 650.819 501.457 650.698 501.166 650.574C500.52 650.403 499.876 650.403 499.23 650.574C498.757 650.689 498.344 650.905 497.992 651.229C497.594 651.485 497.282 651.826 497.052 652.25C496.786 652.668 496.642 653.118 496.619 653.603C496.512 654.088 496.535 654.573 496.685 655.057C496.858 655.675 497.17 656.211 497.623 656.664C497.79 656.823 497.981 656.944 498.168 657.077C498.33 657.464 498.494 657.853 498.702 658.208C499.239 659.137 499.969 659.942 500.733 660.684C501.068 661.01 501.524 661.284 501.977 661.408L502.724 661.512C503.113 661.523 503.474 661.442 503.812 661.266C504.048 661.2 504.256 661.079 504.432 660.906C504.643 660.779 504.813 660.611 504.937 660.401C505.113 660.222 505.234 660.017 505.3 659.778C505.476 659.443 505.557 659.079 505.543 658.693C505.569 658.286 505.557 657.888 505.508 657.484Z" fill="#69C480"/>
<path d="M586.313 807.592C586.083 804.023 585.231 800.148 582.589 797.546C580.604 795.584 576.711 795.774 575.373 798.475C574.005 801.227 573.451 804.202 573.471 807.269C573.48 808.449 573.572 809.629 573.702 810.803C573.872 812.332 574.022 813.882 574.389 815.371C574.871 817.318 576.706 818.599 578.624 818.68C580.428 819.955 583.408 819.217 584.426 817.295C585.996 814.341 586.527 810.91 586.313 807.592Z" fill="#69C480"/>
<path d="M571.142 831.534C570.989 830.328 570.839 829.125 570.444 827.974C569.916 826.436 568.863 825.224 567.253 824.783C565.675 824.35 563.97 824.809 562.81 825.957C561.315 827.437 560.354 829.428 559.757 831.419C559.44 832.475 559.298 833.562 559.163 834.656C558.958 836.324 559.65 837.902 560.721 839.145C560.779 839.342 560.81 839.544 560.885 839.74C561.09 840.467 561.459 841.096 561.99 841.632C562.527 842.166 563.156 842.536 563.886 842.737C564.648 842.942 565.407 842.942 566.168 842.737C566.895 842.536 567.527 842.166 568.064 841.632C570.158 839.87 571.038 836.947 571.235 834.307C571.301 833.384 571.258 832.452 571.142 831.534Z" fill="#69C480"/>
<path d="M1167.37 913.715C1165.72 912.35 1163.74 911.346 1161.53 911.56C1159.41 911.762 1157.63 912.538 1155.96 913.828C1154.26 915.138 1152.93 916.779 1151.82 918.577C1150 920.951 1148.2 923.672 1148.19 926.765C1148.19 929.036 1149.33 931.151 1151.28 932.328C1152.95 933.341 1155.27 933.716 1157.13 933.087C1160.46 931.961 1162.73 928.952 1164.57 926.116C1166.15 923.675 1167.61 920.986 1168.56 918.222C1169.05 916.797 1168.55 914.69 1167.37 913.715Z" fill="#69C480"/>
<path d="M1027 566.898C1027 552.596 1038.6 541 1052.9 541C1067.2 541 1078.79 552.596 1078.79 566.898C1078.79 581.2 1067.2 592.796 1052.9 592.796C1038.6 592.796 1027 581.2 1027 566.898Z" fill="#94D3A2"/>
<path d="M861 574.898C861 560.596 872.596 549 886.898 549C901.203 549 912.796 560.596 912.796 574.898C912.796 589.2 901.203 600.796 886.898 600.796C872.596 600.796 861 589.2 861 574.898Z" fill="#94D3A2"/>
<path d="M437.868 105.081C375.737 170.661 391 297.358 453.5 356.5C516 415.642 573.361 422.284 648.931 415.642C724.501 409 838.368 398.841 863.684 306.921C889 215 876 105.081 748.927 54.4705C621.853 3.86026 500 39.5005 437.868 105.081Z" fill="#31416D"/>
<path d="M778.757 380.152C778.757 380.152 793.834 403.815 816.382 419.786C831.302 430.353 861.743 440.455 868.744 432.3C871.542 429.041 855.108 420.381 843.867 391.648C838.551 378.063 831.929 348.871 831.929 348.871L778.757 380.152Z" fill="#31416D"/>
<path d="M447.7 348.115C447.7 348.115 430.914 370.6 423.973 397.345C419.378 415.04 420.717 447.084 430.826 450.742C434.862 452.202 437.14 433.768 460.024 413.074C470.844 403.288 495.792 386.751 495.792 386.751L447.7 348.115Z" fill="#31416D"/>
<path d="M896.986 88.2324C898.602 85.7541 899.887 82.4749 899.238 79.4775C898.539 76.2499 895.317 74.2586 892.147 74.3265C888.93 74.3949 885.976 76.3478 883.318 77.9674C880.421 79.7365 877.628 81.6926 874.957 83.7875C869.518 88.0597 864.828 93.177 860.733 98.7404C858.822 100.258 857.275 101.873 856.177 104.348C854.535 108.052 859.378 110.96 862.437 109.494C868.832 106.437 875.248 103.42 881.555 100.188C887.308 97.2428 893.367 93.7767 896.986 88.2324Z" fill="#A578E1"/>
<path d="M933.154 109.568C932.182 105.209 927.922 104.257 924.052 104.016C916.007 103.523 908.085 106.12 900.962 109.653C899.199 110.526 897.467 111.48 895.755 112.471C887.376 116.39 879.251 120.783 872.245 126.935C871.373 127.701 870.921 128.574 870.774 129.451C868.835 132.149 870.475 136.61 874.509 135.658C892.427 131.426 912.109 130.985 927.559 119.797C930.873 117.397 934.149 114.04 933.154 109.568Z" fill="#69C480"/>
<path d="M914.618 164.964C915.083 162.093 914.156 159.301 912.375 157.036C909.141 152.921 903.429 151.567 898.46 151.378C892.046 151.136 885.571 152.035 879.202 152.664C877.627 152.818 876.52 154.476 876.401 155.975C875.761 157.697 876.109 159.419 877.262 160.937C879.268 163.584 882.313 165.096 885.303 166.343C887.583 167.296 889.908 168.17 892.248 168.963C897.257 170.663 902.681 171.837 907.983 171.104C911.287 170.65 914.076 168.318 914.618 164.964Z" fill="#F4BF4A"/>
<path d="M517.459 334.631C517.632 339.568 518.852 343.429 521.12 346.213C523.412 348.998 526.657 350.316 530.856 350.17C533.024 350.094 535.634 349.425 538.685 348.164C541.759 346.902 543.412 346.267 543.643 346.259C544.981 346.212 545.673 346.857 545.72 348.196C545.745 348.911 545.336 349.768 544.493 350.768C543.65 351.767 542.266 352.797 540.339 353.858C537.211 355.561 533.94 356.472 530.526 356.591L529.453 356.628C523.755 356.827 519.143 355.06 515.617 351.326C513.867 349.493 512.514 347.126 511.558 344.226C510.602 341.326 510.067 338.238 509.952 334.962L509.914 333.855C509.515 321.788 513.287 313.699 521.227 309.588C523.904 308.201 526.616 307.459 529.361 307.363L530.365 307.328C533.433 307.221 536.274 307.896 538.889 309.352C541.527 310.808 542.876 312.4 542.936 314.131C542.997 315.861 542.3 316.751 540.847 316.802C540.593 316.811 539.157 316.353 536.537 315.428C533.941 314.503 531.605 314.076 529.529 314.148C527.452 314.221 525.565 314.749 523.867 315.732C522.191 316.691 520.918 317.925 520.047 319.434C518.086 322.829 517.224 327.894 517.459 334.631Z" fill="white"/>
<path d="M559.169 330.506L559.249 332.79C559.34 335.42 559.725 337.832 560.402 340.026C561.702 344.184 563.752 347 566.552 348.473C568.2 349.362 569.97 349.774 571.862 349.708L572.935 349.67C574.78 349.606 576.424 349.064 577.867 348.043C582.196 345.005 584.221 339.171 583.943 330.542L583.863 328.258C583.684 323.136 582.523 318.985 580.379 315.803C579.429 314.381 578.211 313.257 576.727 312.431C575.266 311.604 573.763 311.218 572.217 311.272L570.626 311.327C568.826 311.39 567.16 311.957 565.626 313.026C564.093 314.096 562.9 315.328 562.048 316.72C561.196 318.113 560.478 320.032 559.893 322.477C559.308 324.9 559.067 327.576 559.169 330.506ZM591.54 327.851L591.623 330.204C591.748 333.78 591.428 337.187 590.663 340.424C589.897 343.639 588.719 346.267 587.127 348.309C585.535 350.328 583.514 352.004 581.066 353.336C578.641 354.668 576.137 355.379 573.553 355.47L571.234 355.551C568.788 355.613 566.37 355.155 563.98 354.175C559.105 352.151 555.692 348.032 553.743 341.817C552.911 339.167 552.431 335.985 552.301 332.271L552.309 331.508C552.214 328.116 552.547 324.755 553.308 321.425C554.875 314.695 558.155 310.077 563.149 307.569C565.442 306.427 567.938 305.808 570.637 305.714L572.16 305.661C574.559 305.577 577.012 306.023 579.517 306.998C584.295 308.887 587.72 312.694 589.791 318.419C590.838 321.293 591.421 324.437 591.54 327.851Z" fill="white"/>
<path d="M615.282 346.944C616.289 347.325 617.761 347.481 619.699 347.414C621.637 347.346 623.381 346.708 624.933 345.499C626.484 344.266 627.602 342.553 628.287 340.358C628.995 338.139 629.381 332.639 629.444 323.86C629.529 315.057 629.736 309.748 630.066 307.935C630.418 306.121 631.332 305.188 632.809 305.137C634.308 305.084 635.204 305.273 635.496 305.701C635.789 306.13 635.965 307.221 636.026 308.974L636.151 312.539L636.159 313.751L636.297 319.705C636.647 329.718 636.762 335.985 636.642 338.507C636.544 341.005 636.131 343.063 635.403 344.683C634.286 347.101 632.379 349.038 629.681 350.495C627.005 351.928 623.534 352.719 619.266 352.869L618.054 352.911C612.125 353.118 607.734 351.054 604.88 346.719C603.806 345.07 603.019 343.03 602.518 340.599C602.04 338.144 601.703 334.103 601.506 328.473L601.014 319.344L600.616 312.913L600.474 310.839L600.438 309.801C600.39 308.417 600.545 307.557 600.902 307.221C601.282 306.861 602.084 306.66 603.307 306.618C604.945 306.56 606.095 307.744 606.757 310.17C607.631 313.373 608.229 319.588 608.551 328.816L608.788 333.624C609.043 340.914 611.208 345.354 615.282 346.944Z" fill="white"/>
<path d="M659.893 326.677C663.607 326.547 666.447 325.513 668.412 323.573C670.376 321.611 671.305 319.107 671.198 316.061L671.186 315.715L671.14 315.37C671.063 313.179 670.342 311.391 668.977 310.006C667.612 308.622 665.857 307.967 663.712 308.042L663.052 307.996L660.802 308.074C658.38 308.159 656.693 308.46 655.741 308.979C654.789 309.497 654.335 310.391 654.379 311.66C654.314 312.447 654.286 312.968 654.295 313.222L654.293 315.127C654.304 315.45 654.315 315.773 654.326 316.096L654.303 316.409L654.359 318.035L654.359 319.005L654.382 319.663L654.382 320.668C654.389 320.875 654.397 321.083 654.404 321.291L654.415 322.607L654.449 323.576C654.498 324.983 654.714 325.888 655.098 326.29C655.482 326.693 656.4 326.868 657.854 326.818L659.03 326.776C659.398 326.717 659.685 326.684 659.893 326.677ZM671.053 330.757C671.094 331.933 672.793 335.281 676.151 340.8C679.507 346.295 681.186 349.078 681.189 349.147C681.213 349.839 680.429 350.213 678.837 350.269C677.268 350.323 675.873 349.725 674.652 348.474C674.149 347.961 672.59 345.659 669.976 341.57C667.384 337.456 665.517 334.923 664.375 333.97C663.233 333.016 661.37 332.585 658.786 332.675C657.217 332.73 656.253 333.249 655.895 334.231C655.537 335.214 655.315 337.474 655.231 341.011C655.169 344.524 655.028 346.769 654.808 347.747C654.328 349.889 653.27 350.988 651.632 351.045C650.017 351.102 649.073 350.546 648.802 349.377C648.72 349.01 648.549 345.124 648.291 337.719L647.731 321.697C647.685 320.382 647.595 318.791 647.461 316.925L647.393 315.992L647.225 314.161L647.159 313.263C647.071 312.065 647.027 311.454 647.026 311.431L646.996 310.566C646.869 306.944 647.567 304.749 649.087 303.979C650.608 303.21 654.367 302.721 660.366 302.511L661.369 302.476L662.374 302.476C667.449 302.299 671.331 303.33 674.019 305.569C676.731 307.807 678.16 311.025 678.306 315.224C678.453 319.423 677.003 323.204 673.956 326.567C671.998 328.714 671.031 330.111 671.053 330.757Z" fill="white"/>
<path d="M720.949 336.81C721.087 340.778 719.688 344.038 716.751 346.589C713.814 349.139 710.212 350.489 705.944 350.639C701.676 350.788 698.265 350.341 695.711 349.298C693.179 348.232 691.358 347.002 690.247 345.608C689.739 344.956 689.473 344.284 689.449 343.592C689.424 342.9 689.679 342.256 690.213 341.66C690.746 341.064 691.313 340.755 691.913 340.734C692.513 340.713 693.376 340.96 694.502 341.475L696.159 342.284C699.212 343.725 702.065 344.399 704.718 344.306C707.371 344.214 709.385 343.681 710.76 342.709C712.632 341.397 713.529 339.633 713.451 337.418C713.373 335.181 712.314 333.3 710.275 331.778C708.756 330.63 706.042 329.292 702.131 327.766C698.22 326.239 695.467 324.765 693.869 323.342C691.104 320.875 689.656 317.773 689.525 314.035C689.395 310.298 690.753 307.202 693.601 304.746C696.426 302.315 700.273 301.014 705.141 300.844L705.279 300.839C708.209 300.737 710.657 301.056 712.623 301.795C714.612 302.534 715.992 303.352 716.763 304.249C717.555 305.122 717.959 305.755 717.972 306.147C718.008 307.185 717.783 308.002 717.295 308.596C716.808 309.191 716.149 309.502 715.319 309.531C715.203 309.535 713.871 309.085 711.322 308.181C708.795 307.276 706.264 306.868 703.726 306.957C701.188 307.045 699.211 307.969 697.794 309.728C697.131 310.582 696.727 311.59 696.583 312.75C696.546 313.005 696.531 313.26 696.54 313.513C696.573 314.436 696.872 315.407 697.439 316.427C698.397 318.08 701.407 319.926 706.467 321.967C711.527 323.985 714.879 325.715 716.523 327.159C719.334 329.602 720.796 332.438 720.909 335.668L720.949 336.81Z" fill="white"/>
<path d="M759.523 345.095C759.567 346.364 758.615 347.194 756.665 347.585C753.362 348.255 749.058 348.683 743.752 348.868L740.153 348.994C735.746 349.147 732.994 348.712 731.896 347.688C730.798 346.664 730.182 344.237 730.048 340.407L729.922 336.809C729.783 332.817 729.801 328.382 729.977 323.502C730.176 318.621 730.203 314.082 730.056 309.883C729.908 305.661 730.41 303.161 731.561 302.381C733.705 300.944 738.711 300.087 746.577 299.813L750.038 299.692C752.622 299.602 754.461 299.699 755.557 299.984C756.653 300.269 757.219 300.943 757.256 302.004C757.299 303.226 756.474 304.098 754.783 304.619C753.115 305.116 750.38 305.524 746.58 305.841C742.78 306.159 740.419 306.692 739.499 307.44C738.039 308.646 737.387 311.463 737.542 315.893C737.612 317.9 738.185 319.104 739.262 319.505C740.338 319.907 742.842 320.166 746.773 320.282C750.703 320.399 752.68 320.457 752.703 320.456C753.936 320.714 754.578 321.557 754.628 322.988C754.677 324.395 754.016 325.319 752.646 325.759C752.281 325.888 750.085 326.172 746.058 326.613C742.054 327.053 739.645 327.518 738.831 328.009C737.677 328.696 737.15 330.481 737.251 333.365C737.412 337.979 738.228 340.849 739.7 341.976C740.507 342.595 743.286 342.821 748.039 342.655L753.504 342.395C757.449 342.257 759.455 343.157 759.523 345.095Z" fill="white"/>
<path d="M573.371 115.691C573.24 111.935 573.452 109.028 574.008 106.971C574.563 104.914 575.371 103.319 576.429 102.185C577.488 101.051 578.719 100.381 580.124 100.175C581.524 99.8132 583.007 99.6046 584.574 99.5499C586.141 99.4952 587.638 99.678 589.064 100.098C590.485 100.362 591.766 101.101 592.907 102.315C594.042 103.372 594.959 104.907 595.656 106.92C596.354 108.933 596.758 111.505 596.867 114.636L600.311 213.247C600.639 222.638 600.139 230.805 598.813 237.747C597.643 244.683 595.414 250.481 592.125 255.141C588.831 259.644 584.401 263.089 578.837 265.478C573.272 267.866 566.259 269.208 557.797 269.504C554.82 269.608 551.2 269.264 546.936 268.472C542.672 267.681 538.549 266.415 534.566 264.673C530.734 262.77 527.353 260.302 524.424 257.27C521.645 254.076 520.176 250.209 520.018 245.67C519.892 242.07 520.98 239.524 523.281 238.034C525.739 236.537 528.457 235.737 531.434 235.633C533.628 235.557 535.687 236.112 537.611 237.298C539.529 238.328 541.453 239.515 543.383 240.858C545.469 242.195 547.631 243.452 549.869 244.627C552.101 245.647 554.627 246.107 557.448 246.008C560.895 245.888 563.856 245.314 566.33 244.288C568.805 243.261 570.779 241.39 572.253 238.674C573.884 235.953 575.009 232.231 575.628 227.508C576.399 222.623 576.653 216.424 576.391 208.91L573.371 115.691Z" fill="white"/>
<path d="M679.61 98.3469C683.998 98.1936 689.026 98.4098 694.694 98.9955C700.514 99.4191 705.963 100.483 711.043 102.186C716.118 103.732 720.431 105.933 723.982 108.786C727.528 111.483 729.374 114.945 729.522 119.171C729.609 121.675 728.978 123.813 727.628 125.584C726.278 127.355 724.036 128.295 720.902 128.405C718.551 128.487 716.106 128.102 713.566 127.251C711.183 126.394 708.408 125.55 705.241 124.72C702.225 123.729 698.664 122.834 694.557 122.038C690.607 121.235 685.968 120.927 680.64 121.113C670.298 121.474 662.686 123.621 657.803 127.552C653.071 131.322 650.817 136.416 651.041 142.833C651.194 147.216 652.419 150.856 654.717 153.753C657.014 156.651 660.004 159.132 663.684 161.198C667.516 163.101 671.729 164.678 676.322 165.928C681.072 167.173 685.898 168.336 690.799 169.419C696.333 170.636 701.799 172.169 707.198 174.018C712.753 175.861 717.704 178.352 722.049 181.492C726.395 184.631 729.909 188.661 732.591 193.583C735.43 198.498 736.983 204.791 737.251 212.461C737.53 220.444 736.292 227.696 733.539 234.217C730.781 240.582 726.895 246.125 721.883 250.845C716.865 255.408 710.795 259.067 703.675 261.824C696.549 264.423 688.755 265.871 680.293 266.166C675.592 266.33 670.091 266.052 663.791 265.332C657.495 264.768 651.492 263.568 645.779 261.73C640.062 259.735 635.184 257.085 631.146 253.778C627.103 250.315 624.992 246 624.811 240.835C624.702 237.705 625.398 235.173 626.899 233.24C628.557 231.301 631.032 230.275 634.322 230.16C636.986 230.067 639.199 230.538 640.961 231.573C642.718 232.452 644.244 233.496 645.542 234.704C650.385 238.61 655.808 241.163 661.812 242.364C667.816 243.565 673.951 244.056 680.219 243.837C683.823 243.711 687.576 243.345 691.477 242.738C695.529 241.97 699.171 240.667 702.401 238.831C705.632 236.994 708.289 234.472 710.374 231.265C712.453 227.901 713.396 223.48 713.205 218.002C713.03 212.993 711.87 208.959 709.723 205.9C707.728 202.678 705.047 200.029 701.68 197.953C698.312 195.877 694.332 194.213 689.739 192.963C685.302 191.708 680.474 190.466 675.253 189.238C669.401 187.875 663.621 186.353 657.915 184.672C652.208 182.99 647.106 180.661 642.609 177.684C638.107 174.55 634.361 170.606 631.371 165.852C628.532 160.936 626.979 154.644 626.711 146.974C626.443 139.304 627.618 132.524 630.237 126.634C632.855 120.744 636.525 115.758 641.245 111.675C645.966 107.593 651.582 104.419 658.092 102.154C664.759 99.8841 671.932 98.615 679.61 98.3469Z" fill="white"/>
<path d="M1036.21 922.015C1035.56 920.136 1035.1 918.707 1034.81 917.728C1034.52 916.72 1034.5 915.95 1034.77 915.416C1035.03 914.883 1036.52 914.218 1039.23 913.421C1041.95 912.625 1043.78 913.015 1044.72 914.593C1045.94 916.605 1048.53 924.341 1052.48 937.802C1056.43 951.263 1059.16 958.743 1060.69 960.242C1061.53 961.059 1062.87 961.319 1064.71 961.023C1066.54 960.727 1070.16 959.786 1075.56 958.202C1080.96 956.618 1084.03 955.9 1084.77 956.049C1086.08 956.303 1087.06 957.55 1087.71 959.789L1087.99 960.712C1088.35 961.944 1088.39 962.844 1088.1 963.414C1087.82 963.984 1086.76 964.537 1084.93 965.073L1079.2 966.755L1078.23 966.993L1075.37 967.834L1070.52 969.164C1062.41 971.545 1057.58 972.838 1056.05 973.045C1054.52 973.28 1053.25 972.925 1052.22 971.981C1051.22 971.028 1048.06 961.485 1042.74 943.35L1040.95 937.72C1040.68 936.796 1040.41 935.873 1040.14 934.949L1039.55 933.115L1038.2 928.497L1037.7 926.638C1037.52 926.022 1037.34 925.406 1037.16 924.791L1036.21 922.015Z" fill="#31416D"/>
<path d="M972.037 925.876C975.145 925.64 977.992 927.107 980.576 930.275C982.266 932.34 985.146 936.919 989.214 944.011L996.195 956.513L997.165 957.843C997.596 957.81 999.525 953.087 1002.95 943.673C1006.35 934.29 1008.41 928.928 1009.12 927.588C1010.61 924.726 1013.18 923.156 1016.84 922.88C1017.41 922.836 1018.38 923.172 1019.73 923.889C1021.09 924.605 1022.11 925.887 1022.8 927.736C1023.52 929.583 1024.1 933.385 1024.54 939.144L1025.36 950.006L1025.72 956.472L1025.99 960.706L1026.31 964.938L1026.52 967.028L1026.83 971.172L1027.41 977.095C1027.5 978.317 1027.25 979.389 1026.65 980.311C1026.08 981.203 1025.15 981.697 1023.86 981.795C1022.59 981.891 1021.44 981.554 1020.39 980.785C1019.38 979.984 1018.59 978.962 1018.03 977.717C1017.5 976.47 1016.94 971.921 1016.35 964.069L1015.94 959.757C1015.8 958.305 1015.67 956.866 1015.57 955.441C1014.94 947.182 1014.3 943.077 1013.64 943.128C1012.97 943.178 1011.13 947.558 1008.12 956.268C1005.13 964.947 1003.33 969.895 1002.73 971.11C1001.8 972.994 1000.36 974.01 998.399 974.158C996.442 974.306 994.864 973.724 993.665 972.41C993.063 971.725 990.503 967.166 985.986 958.733C981.498 950.298 978.923 946.106 978.261 946.156C977.599 946.206 977.277 950.559 977.296 959.215C977.312 962.49 977.421 966.035 977.623 969.852C977.823 973.639 977.871 976.37 977.766 978.045C977.659 979.691 977.221 981.172 976.452 982.488C975.71 983.772 974.706 984.463 973.439 984.558C972.173 984.654 971.281 984.532 970.763 984.191C969.789 983.562 969.221 982.172 969.058 980.02L967.518 940.169L967.316 938.078L966.873 933.944C966.712 931.821 966.947 930.136 967.576 928.889C968.506 927.035 969.993 926.03 972.037 925.876Z" fill="#31416D"/>
<path d="M952.009 922.928C955.346 923.441 957.41 923.98 958.199 924.544C959.022 925.083 959.286 926.304 958.994 928.207C958.701 930.109 957.941 931.35 956.713 931.928C955.49 932.478 952.853 932.441 948.802 931.818C944.779 931.2 942.202 931.63 941.069 933.108C939.965 934.591 938.638 940.377 937.087 950.466L933.795 969.877C932.789 976.421 932.021 980.183 931.491 981.164C930.993 982.12 929.346 982.383 926.551 981.953L924.497 981.638C922.956 981.401 922.048 980.848 921.773 979.98C921.526 979.115 921.651 977.069 922.147 973.841L922.356 972.766C922.496 972.05 922.621 971.331 922.732 970.611L923.143 968.505C924.105 963.578 924.644 960.739 924.759 959.99L925.105 957.741L925.653 954.462L925.992 952.257L926.201 951.182L926.54 948.977C928.051 939.147 928.733 933.572 928.586 932.251C928.438 930.93 928.084 930.005 927.523 929.476C926.991 928.952 925.555 928.51 923.215 928.15L917.119 927.345C913.696 926.819 912.223 924.999 912.702 921.886L912.841 920.978C913.076 919.45 913.71 918.559 914.742 918.305C915.774 918.05 918.073 918.197 921.639 918.745L929.075 919.667L930.152 919.789C930.869 919.87 931.585 919.965 932.298 920.074L933.417 920.202C934.163 920.288 934.879 920.383 935.563 920.488L941.097 921.25L952.009 922.928Z" fill="#31416D"/>
<path d="M886.497 970.692C885.945 972.322 884.439 972.72 881.978 971.886C878.698 970.774 877.04 969.057 877.004 966.736C876.986 965.529 878.063 961.721 880.235 955.313C882.416 948.877 883.009 945.013 882.015 943.722C881.382 942.891 878.154 941.489 872.332 939.516C866.536 937.552 863.004 937.048 861.736 938.004C860.798 938.702 859.356 941.924 857.409 947.67C855.471 953.387 853.93 956.991 852.784 958.482C851.649 959.944 849.755 960.227 847.103 959.328C844.452 958.429 843.168 957.363 843.251 956.128C843.282 955.677 844.079 953.145 845.642 948.532L848.622 939.334L852.97 927.181L856.793 915.358L859.057 908.273L859.915 905.607L860.309 904.309L860.745 903.025C861.278 901.45 863.13 901.2 866.301 902.275C868.516 903.025 869.664 904.446 869.748 906.538C869.812 907.607 869.182 910.411 867.857 914.95C866.541 919.462 865.86 921.833 865.812 922.064C865.438 924.246 865.671 925.942 866.511 927.151C867.378 928.368 871.748 930.311 879.621 932.979C883.257 934.211 885.591 934.202 886.625 932.951C887.668 931.672 889.097 928.354 890.913 922.995C892.729 917.636 894.23 914.465 895.417 913.482C896.604 912.498 898.714 912.52 901.748 913.549C903.471 914.132 904.351 914.908 904.388 915.875C904.436 916.815 903.42 920.351 901.342 926.483L896.119 941.896L895.654 943.401L894.752 946.468L894.192 947.987C893.034 951.043 891.762 954.616 890.377 958.704L888.395 964.822L887.466 967.833L886.497 970.692Z" fill="#31416D"/>
<path d="M344.038 1026.35L342.905 1026.4C339.196 1026.58 335.843 1025.9 332.844 1024.36C329.881 1022.86 328.339 1020.83 328.217 1018.27L328.17 1017.3C328.091 1015.63 328.846 1014.14 330.435 1012.83C331.13 1012.25 332.388 1011.91 334.208 1011.83L340.609 1012.91C342.498 1012.82 344.216 1012.03 345.763 1010.56C347.343 1009.05 348.553 1007 349.394 1004.43C351.17 999.077 351.787 990.734 351.246 979.4C350.996 974.143 350.293 969.146 349.137 964.411C348.017 959.675 347.422 956.589 347.354 955.156C347.284 953.688 347.876 952.394 349.13 951.273C350.419 950.151 352.523 949.52 355.442 949.381C358.395 949.24 360.336 949.883 361.264 951.31C362.9 953.867 363.804 956.937 363.975 960.522L364.029 961.648L363.882 972.638L364.268 980.729L364.485 984.209C365.011 995.235 365.048 1002.5 364.596 1006.02C363.506 1014.18 360.166 1019.91 354.576 1023.23C351.431 1025.12 347.918 1026.16 344.038 1026.35Z" fill="#31416D"/>
<path d="M391.972 1013.48C390.32 1012.42 389.305 1011.05 388.925 1009.39C388.546 1007.72 388.749 1006.29 389.535 1005.1C390.347 1003.86 391.088 1003.16 391.758 1003.01C392.462 1002.85 395.321 1003.25 400.335 1004.21C405.375 1005.14 409.805 1005.16 413.627 1004.29C421.538 1002.49 424.88 998.821 423.655 993.281C422.896 989.949 420.947 987.658 417.807 986.41C415.601 985.545 410.949 984.624 403.851 983.645C396.745 982.634 391.401 980.994 387.817 978.725C384.259 976.415 381.923 972.811 380.808 967.912C378.684 958.581 381.814 951.42 390.197 946.427C393.239 944.613 396.504 943.309 399.99 942.516L401.75 942.115C406.208 941.101 410.812 941.034 415.561 941.916C420.335 942.757 423.007 944.428 423.576 946.927C423.902 948.36 423.846 949.74 423.408 951.066C423.003 952.385 422.163 953.19 420.889 953.479C420.554 953.556 417.725 953.131 412.402 952.204C409.354 951.671 405.534 951.927 400.942 952.972C398.193 953.598 396.025 954.915 394.437 956.924C392.849 958.933 392.287 960.953 392.749 962.986C393.478 966.185 395.494 968.46 398.798 969.811C400.236 970.395 404.399 971.183 411.288 972.174C418.203 973.123 423.217 974.471 426.329 976.216C429.441 977.961 431.683 979.835 433.055 981.836C434.419 983.803 435.363 985.937 435.887 988.236L436.274 989.936C437.616 995.834 436.497 1001.07 432.918 1005.63C429.338 1010.2 424.112 1013.26 417.241 1014.82C410.369 1016.39 404.844 1016.82 400.666 1016.13C396.522 1015.42 393.624 1014.54 391.972 1013.48Z" fill="#31416D"/>
</g>
<defs>
<clipPath id="clip0_1640_10308">
<rect width="1464" height="1179" fill="white"/>
</clipPath>
</defs>
</svg>
